<svg id="visual" viewBox="0 0 900 600" width="900" height="600" xmlns="http://www.w3.org/2000/svg" xmlns:xlink="http://www.w3.org/1999/xlink" version="1.1"><rect x="0" y="0" width="900" height="600" fill="#0a192f"></rect><defs><linearGradient id="grad1_0" x1="33.3%" y1="100%" x2="100%" y2="0%"><stop offset="20%" stop-color="#0a192f" stop-opacity="1"></stop><stop offset="80%" stop-color="#0a192f" stop-opacity="1"></stop></linearGradient></defs><defs><linearGradient id="grad2_0" x1="0%" y1="100%" x2="66.7%" y2="0%"><stop offset="20%" stop-color="#0a192f" stop-opacity="1"></stop><stop offset="80%" stop-color="#0a192f" stop-opacity="1"></stop></linearGradient></defs><g transform="translate(900, 600)"><path d="M-135.2 0C-126.4 -20.5 -117.6 -40.9 -107.4 -62C-97.2 -83.1 -85.7 -104.8 -67.6 -117.1C-49.5 -129.4 -24.7 -132.3 0 -135.2L0 0Z" fill="#2d6fd2"></path></g><g transform="translate(0, 0)"><path d="M135.2 0C131 23.1 126.8 46.3 116 67C105.3 87.7 88 106.1 67.6 117.1C47.2 128.1 23.6 131.6 0 135.2L0 0Z" fill="#2d6fd2"></path></g></svg>