<svg id="visual" viewBox="0 0 900 600" width="900" height="600" xmlns="http://www.w3.org/2000/svg" xmlns:xlink="http://www.w3.org/1999/xlink" version="1.1"><rect x="0" y="0" width="900" height="600" fill="#000e0f"></rect><defs><linearGradient id="grad1_0" x1="33.3%" y1="100%" x2="100%" y2="0%"><stop offset="20%" stop-color="#000e0f" stop-opacity="1"></stop><stop offset="80%" stop-color="#000e0f" stop-opacity="1"></stop></linearGradient></defs><defs><linearGradient id="grad2_0" x1="0%" y1="100%" x2="66.7%" y2="0%"><stop offset="20%" stop-color="#000e0f" stop-opacity="1"></stop><stop offset="80%" stop-color="#000e0f" stop-opacity="1"></stop></linearGradient></defs><g transform="translate(900, 600)"><path d="M-135.2 0C-133.2 -17.4 -131.1 -34.8 -124.9 -51.7C-118.7 -68.7 -108.3 -85.1 -94 -94C-79.8 -103 -61.8 -104.3 -45.5 -109.9C-29.2 -115.5 -14.6 -125.4 0 -135.2L0 0Z" fill="#026168"></path></g><g transform="translate(0, 0)"><path d="M135.2 0C135.2 19.5 135.2 39 124.9 51.7C114.6 64.5 93.9 70.5 79.9 79.9C65.9 89.3 58.5 102 46.3 111.8C34.1 121.6 17 128.4 0 135.2L0 0Z" fill="#026168"></path></g></svg>